HIERARCHY
ROOT hip
{
  OFFSET 0 0 0
  CHANNELS 6 Xposition Yposition Zposition Zrotation Yrotation Xrotation
  JOINT abdomen
  {
    OFFSET 0 20.6881 -0.73152
    CHANNELS 3 Zrotation Xrotation Yrotation
    JOINT chest
    {
      OFFSET 0 11.7043 -0.48768
      CHANNELS 3 Zrotation Xrotation Yrotation
      JOINT neck
      {
        OFFSET 0 22.1894 -2.19456
        CHANNELS 3 Zrotation Xrotation Yrotation
        JOINT head
        {
          OFFSET -0.24384 7.07133 1.2192
          CHANNELS 3 Zrotation Xrotation Yrotation
          JOINT leftEye
          {
            OFFSET 4.14528 8.04674 8.04672
            CHANNELS 3 Zrotation Xrotation Yrotation
            End Site
            {
              OFFSET 1 0 0
            }
          }
          JOINT rightEye
          {
            OFFSET -3.6576 8.04674 8.04672
            CHANNELS 3 Zrotation Xrotation Yrotation
            End Site
            {
              OFFSET 1 0 0
            }
          }
        }
      }
      JOINT rCollar
      {
        OFFSET -2.68224 19.2634 -4.8768
        CHANNELS 3 Zrotation Xrotation Yrotation
        JOINT rShldr
        {
          OFFSET -8.77824 -1.95073 1.46304
          CHANNELS 3 Zrotation Xrotation Yrotation
          JOINT rForeArm
          {
            OFFSET -28.1742 -1.7115 0.48768
            CHANNELS 3 Zrotation Xrotation Yrotation
            JOINT rHand
            {
              OFFSET -22.5879 0.773209 7.07136
              CHANNELS 3 Zrotation Xrotation Yrotation
              JOINT rThumb1
              {
                OFFSET -1.2192 -0.487915 3.41376
                CHANNELS 3 Zrotation Xrotation Yrotation
                JOINT rThumb2
                {
                  OFFSET -3.37035 -0.52449 3.41376
                  CHANNELS 3 Zrotation Xrotation Yrotation
                  End Site
                  {
                    OFFSET -1.78271 -1.18214 1.43049
                  }
                }
              }
              JOINT rIndex1
              {
                OFFSET -7.75947 0.938293 5.60832
                CHANNELS 3 Zrotation Xrotation Yrotation
                JOINT rIndex2
                {
                  OFFSET -2.54057 -0.884171 1.56538
                  CHANNELS 3 Zrotation Xrotation Yrotation
                  End Site
                  {
                    OFFSET -1.62519 -0.234802 1.16502
                  }
                }
              }
              JOINT rMid1
              {
                OFFSET -8.24714 1.18213 3.41376
                CHANNELS 3 Zrotation Xrotation Yrotation
                JOINT rMid2
                {
                  OFFSET -3.10165 -0.590103 1.0647
                  CHANNELS 3 Zrotation Xrotation Yrotation
                  End Site
                  {
                    OFFSET -2.48547 -0.328903 0.83742
                  }
                }
              }
              JOINT rRing1
              {
                OFFSET -8.82822 0.546677 1.51678
                CHANNELS 3 Zrotation Xrotation Yrotation
                JOINT rRing2
                {
                  OFFSET -2.60934 -0.819778 -0.0198488
                  CHANNELS 3 Zrotation Xrotation Yrotation
                  End Site
                  {
                    OFFSET -2.33842 -0.294052 0.168128
                  }
                }
              }
              JOINT rPinky1
              {
                OFFSET -8.27202 -0.0477905 -0.4584
                CHANNELS 3 Zrotation Xrotation Yrotation
                JOINT rPinky2
                {
                  OFFSET -1.82734 -0.647385 -0.700984
                  CHANNELS 3 Zrotation Xrotation Yrotation
                  End Site
                  {
                    OFFSET -1.69225 -0.51767 -0.607171
                  }
                }
              }
            }
          }
        }
      }
      JOINT lCollar
      {
        OFFSET 2.68224 19.2634 -4.8768
        CHANNELS 3 Zrotation Xrotation Yrotation
        JOINT lShldr
        {
          OFFSET 8.77824 -1.95073 1.46304
          CHANNELS 3 Zrotation Xrotation Yrotation
          JOINT lForeArm
          {
            OFFSET 28.1742 -1.7115 0.48768
            CHANNELS 3 Zrotation Xrotation Yrotation
            JOINT lHand
            {
              OFFSET 22.5879 0.773209 7.07136
              CHANNELS 3 Zrotation Xrotation Yrotation
              JOINT lThumb1
              {
                OFFSET 1.2192 -0.487915 3.41376
                CHANNELS 3 Zrotation Xrotation Yrotation
                JOINT lThumb2
                {
                  OFFSET 3.37035 -0.52449 3.41376
                  CHANNELS 3 Zrotation Xrotation Yrotation
                  End Site
                  {
                    OFFSET 1.78271 -1.18214 1.43049
                  }
                }
              }
              JOINT lIndex1
              {
                OFFSET 7.75947 0.938293 5.60832
                CHANNELS 3 Zrotation Xrotation Yrotation
                JOINT lIndex2
                {
                  OFFSET 2.54057 -0.884171 1.56538
                  CHANNELS 3 Zrotation Xrotation Yrotation
                  End Site
                  {
                    OFFSET 1.62519 -0.234802 1.16502
                  }
                }
              }
              JOINT lMid1
              {
                OFFSET 8.24714 1.18213 3.41376
                CHANNELS 3 Zrotation Xrotation Yrotation
                JOINT lMid2
                {
                  OFFSET 3.10165 -0.590103 1.0647
                  CHANNELS 3 Zrotation Xrotation Yrotation
                  End Site
                  {
                    OFFSET 2.48547 -0.328903 0.83742
                  }
                }
              }
              JOINT lRing1
              {
                OFFSET 8.82822 0.546677 1.51678
                CHANNELS 3 Zrotation Xrotation Yrotation
                JOINT lRing2
                {
                  OFFSET 2.60934 -0.819778 -0.0198488
                  CHANNELS 3 Zrotation Xrotation Yrotation
                  End Site
                  {
                    OFFSET 2.33842 -0.294052 0.168128
                  }
                }
              }
              JOINT lPinky1
              {
                OFFSET 8.27202 -0.0477905 -0.4584
                CHANNELS 3 Zrotation Xrotation Yrotation
                JOINT lPinky2
                {
                  OFFSET 1.82734 -0.647385 -0.700984
                  CHANNELS 3 Zrotation Xrotation Yrotation
                  End Site
                  {
                    OFFSET 1.69225 -0.51767 -0.607171
                  }
                }
              }
            }
          }
        }
      }
    }
  }
  JOINT rButtock
  {
    OFFSET -8.77824 4.35084 1.2192
    CHANNELS 3 Zrotation Xrotation Yrotation
    JOINT rThigh
    {
      OFFSET 0 -1.70687 -2.19456
      CHANNELS 3 Zrotation Xrotation Yrotation
      JOINT rShin
      {
        OFFSET 0 -36.8199 0.73152
        CHANNELS 3 Zrotation Xrotation Yrotation
        JOINT rFoot
        {
          OFFSET 0.73152 -45.1104 -5.12064
          CHANNELS 3 Zrotation Xrotation Yrotation
          End Site
          {
            OFFSET -1.1221 -3.69964 12.103
          }
        }
      }
    }
  }
  JOINT lButtock
  {
    OFFSET 8.77824 4.35084 1.2192
    CHANNELS 3 Zrotation Xrotation Yrotation
    JOINT lThigh
    {
      OFFSET 0 -1.70687 -2.19456
      CHANNELS 3 Zrotation Xrotation Yrotation
      JOINT lShin
      {
        OFFSET 0 -36.8199 0.73152
        CHANNELS 3 Zrotation Xrotation Yrotation
        JOINT lFoot
        {
          OFFSET -0.73152 -45.1104 -5.12064
          CHANNELS 3 Zrotation Xrotation Yrotation
          End Site
          {
            OFFSET 1.1221 -3.69964 12.103
          }
        }
      }
    }
  }
}
MOTION
Frames:	5
Frame Time:	0.03333
4.2769000137923285 56.19199872016907 3.3759000240934256 -164.88401794433594 78.15998840332031 -163.9099884033203 2.5953357219696045 13.639802932739258 16.320396423339844 -4.074377059936523 -11.527097702026367 4.232885837554932 1.3905260562896729 14.108299255371094 13.689800262451172 -1.0581350326538086 -20.659597396850586 26.814701080322266 -0.0 0.0 -0.0 -0.0 0.0 -0.0 -0.0 0.0 -0.0 78.58269500732422 59.159996032714844 -34.06319808959961 -25.45418930053711 -47.258201599121094 98.28439331054688 -11.511484146118164 -65.41215515136719 -17.867462158203125 -0.0 0.0 -0.0 -0.0 0.0 -0.0 -0.0 0.0 -0.0 7.73087739944458 5.47489595413208 0.41732463240623474 -0.0 0.0 -0.0 2.9054994583129883 0.9650753736495972 0.10300876200199127 -0.0 0.0 -0.0 10.278595924377441 0.7317469120025635 0.026285577565431595 -0.0 0.0 -0.0 2.221662759780884 -0.7335850596427917 -0.20831839740276337 -0.0 0.0 -0.0 -41.95751190185547 12.619937896728516 -29.248815536499023 28.433006286621094 -35.310489654541016 -75.8501968383789 3.650873899459839 -46.43717575073242 8.497770309448242 -0.0 0.0 -0.0 -0.0 0.0 -0.0 -0.0 0.0 -0.0 -7.73087739944458 5.47489595413208 -0.41732463240623474 -0.0 0.0 -0.0 -2.9054994583129883 0.9650753736495972 -0.10300876200199127 -0.0 0.0 -0.0 -10.278595924377441 0.7317469120025635 -0.026285577565431595 -0.0 0.0 -0.0 -2.221662759780884 -0.7335850596427917 0.20831839740276337 -0.0 0.0 -0.0 -50.72959518432617 -40.416988372802734 -41.04149627685547 -152.74952697753906 87.5702896118164 153.1264190673828 -7.097581386566162 -27.634403228759766 -9.13184928894043 -0.0 0.0 -0.0 62.8782958984375 -50.10689163208008 48.49270248413086 167.1695098876953 84.63804626464844 -167.38250732421875 2.644897699356079 -26.43479347229004 3.1767098903656006
4.403900014585815 56.16440176963806 3.4045000235892076 -165.1639862060547 78.30403137207031 -164.11099243164062 2.4490649700164795 13.430105209350586 16.124698638916016 -4.042491436004639 -11.579201698303223 4.172941207885742 1.5393320322036743 14.06579875946045 13.694201469421387 -1.169256329536438 -20.35779571533203 26.800195693969727 -0.0 0.0 -0.0 -0.0 0.0 -0.0 -0.0 0.0 -0.0 83.00960540771484 57.632511138916016 -38.60309600830078 -25.743999481201172 -46.75139236450195 97.1646957397461 -12.07508659362793 -66.08058166503906 -18.472728729248047 -0.0 0.0 -0.0 -0.0 0.0 -0.0 -0.0 0.0 -0.0 7.73087739944458 5.47489595413208 0.41732463240623474 -0.0 0.0 -0.0 2.9054994583129883 0.9650753736495972 0.10300876200199127 -0.0 0.0 -0.0 10.278595924377441 0.7317469120025635 0.026285577565431595 -0.0 0.0 -0.0 2.221662759780884 -0.7335850596427917 -0.20831839740276337 -0.0 0.0 -0.0 -42.239505767822266 9.890923500061035 -27.4564208984375 28.414602279663086 -34.63500213623047 -74.74478912353516 3.3525092601776123 -45.00812911987305 8.080936431884766 -0.0 0.0 -0.0 -0.0 0.0 -0.0 -0.0 0.0 -0.0 -7.73087739944458 5.47489595413208 -0.41732463240623474 -0.0 0.0 -0.0 -2.9054994583129883 0.9650753736495972 -0.10300876200199127 -0.0 0.0 -0.0 -10.278595924377441 0.7317469120025635 -0.026285577565431595 -0.0 0.0 -0.0 -2.221662759780884 -0.7335850596427917 0.20831839740276337 -0.0 0.0 -0.0 -50.7184944152832 -40.57349395751953 -40.919002532958984 -153.6732940673828 87.48970031738281 154.0532989501953 -7.246190071105957 -27.66440773010254 -9.353660583496094 -0.0 0.0 -0.0 62.84059143066406 -49.95529556274414 48.548194885253906 167.16183471679688 84.64247131347656 -167.37977600097656 2.764293670654297 -26.503103256225586 3.36846661567688
4.527200010488741 56.14299774169922 3.4316000233047816 -165.19200134277344 78.47999572753906 -164.06100463867188 2.3387937545776367 13.244787216186523 16.00029182434082 -4.0213303565979 -11.628201484680176 4.134007930755615 1.6104258298873901 14.049904823303223 13.711888313293457 -1.1369057893753052 -20.157400131225586 26.839298248291016 -0.0 0.0 -0.0 -0.0 0.0 -0.0 -0.0 0.0 -0.0 86.95389556884766 56.01689147949219 -42.560394287109375 -26.01171112060547 -46.24968338012695 96.0796890258789 -12.173406600952148 -66.19901275634766 -18.58032989501953 -0.0 0.0 -0.0 -0.0 0.0 -0.0 -0.0 0.0 -0.0 7.73087739944458 5.47489595413208 0.41732463240623474 -0.0 0.0 -0.0 2.9054994583129883 0.9650753736495972 0.10300876200199127 -0.0 0.0 -0.0 10.278595924377441 0.7317469120025635 0.026285577565431595 -0.0 0.0 -0.0 2.221662759780884 -0.7335850596427917 -0.20831839740276337 -0.0 0.0 -0.0 -42.36518478393555 7.279560565948486 -26.03288459777832 28.379199981689453 -33.874698638916016 -73.48209381103516 3.2527353763580322 -44.502838134765625 7.9395880699157715 -0.0 0.0 -0.0 -0.0 0.0 -0.0 -0.0 0.0 -0.0 -7.73087739944458 5.47489595413208 -0.41732463240623474 -0.0 0.0 -0.0 -2.9054994583129883 0.9650753736495972 -0.10300876200199127 -0.0 0.0 -0.0 -10.278595924377441 0.7317469120025635 -0.026285577565431595 -0.0 0.0 -0.0 -2.221662759780884 -0.7335850596427917 0.20831839740276337 -0.0 0.0 -0.0 -50.65309143066406 -40.71119689941406 -40.78749465942383 -154.287353515625 87.43241119384766 154.6713104248047 -7.382918357849121 -27.68800163269043 -9.560307502746582 -0.0 0.0 -0.0 62.80018997192383 -49.783294677734375 48.55068588256836 167.1536407470703 84.6479263305664 -167.37770080566406 2.872135639190674 -26.58070182800293 3.537914752960205
4.655500009539537 56.12649917602539 3.456120023747644 -165.1409912109375 78.63597106933594 -163.93798828125 2.2651660442352295 13.084009170532227 15.9468994140625 -4.010735988616943 -11.67419719696045 4.11619758605957 1.6036783456802368 14.060501098632812 13.742997169494629 -0.961438000202179 -20.05840492248535 26.931196212768555 -0.0 0.0 -0.0 -0.0 0.0 -0.0 -0.0 0.0 -0.0 90.48400115966797 54.35250473022461 -46.00469207763672 -26.258901596069336 -45.7538948059082 95.02699279785156 -11.819928169250488 -65.76618957519531 -18.193349838256836 -0.0 0.0 -0.0 -0.0 0.0 -0.0 -0.0 0.0 -0.0 7.73087739944458 5.47489595413208 0.41732463240623474 -0.0 0.0 -0.0 2.9054994583129883 0.9650753736495972 0.10300876200199127 -0.0 0.0 -0.0 10.278595924377441 0.7317469120025635 0.026285577565431595 -0.0 0.0 -0.0 2.221662759780884 -0.7335850596427917 -0.20831839740276337 -0.0 0.0 -0.0 -42.39449691772461 4.821101665496826 -24.948898315429688 28.3129940032959 -33.01210021972656 -72.0791015625 3.354011058807373 -44.9218864440918 8.065192222595215 -0.0 0.0 -0.0 -0.0 0.0 -0.0 -0.0 0.0 -0.0 -7.73087739944458 5.47489595413208 -0.41732463240623474 -0.0 0.0 -0.0 -2.9054994583129883 0.9650753736495972 -0.10300876200199127 -0.0 0.0 -0.0 -10.278595924377441 0.7317469120025635 -0.026285577565431595 -0.0 0.0 -0.0 -2.221662759780884 -0.7335850596427917 0.20831839740276337 -0.0 0.0 -0.0 -50.53370666503906 -40.829898834228516 -40.64710235595703 -154.635498046875 87.3984146118164 155.0225067138672 -7.507538795471191 -27.7051944732666 -9.751627922058105 -0.0 0.0 -0.0 62.75761032104492 -49.5906982421875 48.500919342041016 167.14402770996094 84.65433502197266 -167.37303161621094 2.968400239944458 -26.667789459228516 3.684964179992676
4.770900015137158 56.114500761032104 3.468060023715225 -164.9149932861328 78.72098541259766 -163.66299438476562 2.2293057441711426 12.924681663513184 15.888002395629883 -4.007386207580566 -11.70519733428955 4.097623825073242 1.606925129890442 13.953392028808594 13.80309009552002 -0.7969754338264465 -19.712997436523438 27.077999114990234 -0.0 0.0 -0.0 -0.0 0.0 -0.0 -0.0 0.0 -0.0 93.44847106933594 52.60036849975586 -48.80280685424805 -26.493694305419922 -45.25020980834961 93.97459411621094 -11.693462371826172 -65.60702514648438 -18.05460548400879 -0.0 0.0 -0.0 -0.0 0.0 -0.0 -0.0 0.0 -0.0 7.73087739944458 5.47489595413208 0.41732463240623474 -0.0 0.0 -0.0 2.9054994583129883 0.9650753736495972 0.10300876200199127 -0.0 0.0 -0.0 10.278595924377441 0.7317469120025635 0.026285577565431595 -0.0 0.0 -0.0 2.221662759780884 -0.7335850596427917 -0.20831839740276337 -0.0 0.0 -0.0 -42.4025993347168 2.567098617553711 -24.093198776245117 28.228790283203125 -32.2306022644043 -70.83499908447266 3.533872127532959 -45.97938537597656 8.35318660736084 -0.0 0.0 -0.0 -0.0 0.0 -0.0 -0.0 0.0 -0.0 -7.73087739944458 5.47489595413208 -0.41732463240623474 -0.0 0.0 -0.0 -2.9054994583129883 0.9650753736495972 -0.10300876200199127 -0.0 0.0 -0.0 -10.278595924377441 0.7317469120025635 -0.026285577565431595 -0.0 0.0 -0.0 -2.221662759780884 -0.7335850596427917 0.20831839740276337 -0.0 0.0 -0.0 -50.47940444946289 -40.88019561767578 -40.59779357910156 -155.03834533691406 87.35728454589844 155.42742919921875 -7.5514421463012695 -27.751604080200195 -9.812905311584473 -0.0 0.0 -0.0 62.71000671386719 -49.48698806762695 48.437904357910156 167.17149353027344 84.64459228515625 -167.40550231933594 3.0552101135253906 -26.708192825317383 3.821533679962158
